<?xml version="1.0" encoding="UTF-8"?>
<svg version="1.1" xmlns="http://www.w3.org/2000/svg" width="16" height="16">
<path d="M0 0 C1.98 0.66 3.96 1.32 6 2 C6.66 1.34 7.32 0.68 8 0 C8.99 0 9.98 0 11 0 C11 5.28 11 10.56 11 16 C6.05 16 1.1 16 -4 16 C-4 11 -4 11 -2.5 9.1875 C-2.005 8.795625 -1.51 8.40375 -1 8 C-1.66 7.67 -2.32 7.34 -3 7 C-2.25 2.25 -2.25 2.25 0 0 Z " fill="#384E43" transform="translate(5,0)"/>
<path d="M0 0 C0.33 2.97 0.66 5.94 1 9 C-1.97 9 -4.94 9 -8 9 C-7.34 6.36 -6.68 3.72 -6 1 C-2 0 -2 0 0 0 Z " fill="#392723" transform="translate(15,7)"/>
<path d="M0 0 C0.33 0 0.66 0 1 0 C3.48063781 9.41002278 3.48063781 9.41002278 2 14 C0.68 14 -0.64 14 -2 14 C-2.36923077 9.44615385 -2.36923077 9.44615385 -0.5 7.1875 C0.2425 6.5996875 0.2425 6.5996875 1 6 C0.34 5.67 -0.32 5.34 -1 5 C-0.67 3.35 -0.34 1.7 0 0 Z " fill="#42302B" transform="translate(3,2)"/>
<path d="M0 0 C0.99 0 1.98 0 3 0 C3 2.31 3 4.62 3 7 C2.01 7 1.02 7 0 7 C0 7.66 0 8.32 0 9 C-0.66 9 -1.32 9 -2 9 C-2.125 5.625 -2.125 5.625 -2 2 C-1.34 1.34 -0.68 0.68 0 0 Z " fill="#AA905D" transform="translate(13,0)"/>
<path d="M0 0 C1.32 0.33 2.64 0.66 4 1 C3.125 8.75 3.125 8.75 2 11 C1.34 11 0.68 11 0 11 C0 7.37 0 3.74 0 0 Z " fill="#B5856A" transform="translate(5,5)"/>
<path d="M0 0 C1.65 0.33 3.3 0.66 5 1 C4.3125 3.375 4.3125 3.375 3 6 C0.375 7.3125 0.375 7.3125 -2 8 C-1.34 5.36 -0.68 2.72 0 0 Z " fill="#433835" transform="translate(9,8)"/>
</svg>
